{
  "accessors": [
    {
      "bufferView": 2,
      "componentType": 5126,
      "count": 11379,
      "max": [
        1977.868408203125,
        1625.993896484375,
        5423.51123046875
      ],
      "min": [
        -1977.867919921875,
        -2061.552001953125,
        -759.2347412109375
      ],
      "type": "VEC3"
    },
    {
      "bufferView": 2,
      "byteOffset": 136548,
      "componentType": 5126,
      "count": 11379,
      "max": [
        0.9995192885398865,
        0.9999791383743286,
        1.0
      ],
      "min": [
        -0.99953693151474,
        -0.9999934434890747,
        -1.0
      ],
      "type": "VEC3"
    },
    {
      "bufferView": 3,
      "componentType": 5126,
      "count": 11379,
      "max": [
        1.0,
        0.9999995231628418,
        0.9993768334388733,
        1.0
      ],
      "min": [
        -0.9999996423721313,
        -1.0,
        -0.9999884963035583,
        -1.0
      ],
      "type": "VEC4"
    },
    {
      "bufferView": 1,
      "componentType": 5126,
      "count": 11379,
      "max": [
        0.9975137114524841,
        0.9972429275512695
      ],
      "min": [
        0.0013155722990632057,
        0.0025886259973049164
      ],
      "type": "VEC2"
    },
    {
      "bufferView": 0,
      "componentType": 5125,
      "count": 49866,
      "type": "SCALAR"
    }
  ],
  "asset": {
    "extras": {
      "author": "zguerrero (https://sketchfab.com/zguerrero)",
      "license": "CC-BY-4.0 (http://creativecommons.org/licenses/by/4.0/)",
      "source": "https://sketchfab.com/3d-models/space-rocket-ec4ed8894c71468baf77f4f4d2f4f5ab",
      "title": "Space Rocket"
    },
    "generator": "Sketchfab-15.13.0",
    "version": "2.0"
  },
  "bufferViews": [
    {
      "buffer": 0,
      "byteLength": 199464,
      "name": "floatBufferViews",
      "target": 34963
    },
    {
      "buffer": 0,
      "byteLength": 91032,
      "byteOffset": 199464,
      "byteStride": 8,
      "name": "floatBufferViews",
      "target": 34962
    },
    {
      "buffer": 0,
      "byteLength": 273096,
      "byteOffset": 290496,
      "byteStride": 12,
      "name": "floatBufferViews",
      "target": 34962
    },
    {
      "buffer": 0,
      "byteLength": 182064,
      "byteOffset": 563592,
      "byteStride": 16,
      "name": "floatBufferViews",
      "target": 34962
    }
  ],
  "buffers": [
    {
      "byteLength": 745656,
      "uri": "scene.bin"
    }
  ],
  "extensionsRequired": [
    "KHR_materials_pbrSpecularGlossiness"
  ],
  "extensionsUsed": [
    "KHR_materials_pbrSpecularGlossiness",
    "KHR_materials_emissive_strength"
  ],
  "images": [
    {
      "uri": "textures/rocket_diffuse.png"
    },
    {
      "uri": "textures/rocket_specularGlossiness.png"
    },
    {
      "uri": "textures/rocket_emissive.png"
    },
    {
      "uri": "textures/rocket_normal.png"
    }
  ],
  "materials": [
    {
      "emissiveFactor": [
        1.0,
        1.0,
        1.0
      ],
      "emissiveTexture": {
        "index": 2
      },
      "extensions": {
        "KHR_materials_emissive_strength": {
          "emissiveStrength": 10.0
        },
        "KHR_materials_pbrSpecularGlossiness": {
          "diffuseFactor": [
            1.0,
            1.0,
            1.0,
            1.0
          ],
          "diffuseTexture": {
            "index": 0
          },
          "glossinessFactor": 0.6,
          "specularFactor": [
            0.5,
            0.5,
            0.5
          ],
          "specularGlossinessTexture": {
            "index": 1
          }
        }
      },
      "name": "rocket",
      "normalTexture": {
        "index": 3
      }
    }
  ],
  "meshes": [
    {
      "name": "rocket_01_rocket_0",
      "primitives": [
        {
          "attributes": {
            "NORMAL": 1,
            "POSITION": 0,
            "TANGENT": 2,
            "TEXCOORD_0": 3
          },
          "indices": 4,
          "material": 0,
          "mode": 4
        }
      ]
    }
  ],
  "nodes": [
    {
      "children": [
        1
      ],
      "matrix": [
        1.0,
        0.0,
        0.0,
        0.0,
        0.0,
        2.220446049250313e-16,
        -1.0,
        0.0,
        0.0,
        1.0,
        2.220446049250313e-16,
        0.0,
        0.0,
        0.0,
        0.0,
        1.0
      ],
      "name": "Sketchfab_model"
    },
    {
      "children": [
        2
      ],
      "matrix": [
        0.009999999776482582,
        0.0,
        0.0,
        0.0,
        0.0,
        0.0,
        0.009999999776482582,
        0.0,
        0.0,
        -0.009999999776482582,
        0.0,
        0.0,
        0.0,
        0.0,
        0.0,
        1.0
      ],
      "name": "d2800bac46254010923b55eb70fef16d.fbx"
    },
    {
      "children": [
        3
      ],
      "name": "RootNode"
    },
    {
      "children": [
        4
      ],
      "matrix": [
        0.9848077529355751,
        -7.346650702965466e-09,
        -0.173647491601285,
        0.0,
        -0.1736474916012839,
        -1.6162525256559877e-07,
        -0.984807752935562,
        0.0,
        -2.0830786082171038e-08,
        0.9999999999999869,
        -1.6044556749861272e-07,
        0.0,
        0.0003519057936500758,
        -966.8867797851563,
        -5.674361818819307e-05,
        1.0
      ],
      "name": "rocket_01"
    },
    {
      "mesh": 0,
      "name": "rocket_01_rocket_0"
    }
  ],
  "samplers": [
    {
      "magFilter": 9729,
      "minFilter": 9987,
      "wrapS": 10497,
      "wrapT": 10497
    }
  ],
  "scene": 0,
  "scenes": [
    {
      "name": "Sketchfab_Scene",
      "nodes": [
        0
      ]
    }
  ],
  "textures": [
    {
      "sampler": 0,
      "source": 0
    },
    {
      "sampler": 0,
      "source": 1
    },
    {
      "sampler": 0,
      "source": 2
    },
    {
      "sampler": 0,
      "source": 3
    }
  ]
}
