{
  "accessors": [
    {
      "bufferView": 2,
      "componentType": 5126,
      "count": 65532,
      "max": [
        9.825102806091309,
        13.215079307556152,
        3.3407859802246094
      ],
      "min": [
        -7.827808380126953,
        -10.505963325500488,
        -4.833387851715088
      ],
      "type": "VEC3"
    },
    {
      "bufferView": 2,
      "byteOffset": 786384,
      "componentType": 5126,
      "count": 65532,
      "max": [
        0.9814430475234985,
        0.9707752466201782,
        0.981792688369751
      ],
      "min": [
        -0.9836800694465637,
        -0.9885505437850952,
        -0.9999638795852661
      ],
      "type": "VEC3"
    },
    {
      "bufferView": 1,
      "componentType": 5126,
      "count": 65532,
      "max": [
        0.9910142421722412,
        0.9999746084213257
      ],
      "min": [
        1.8873932276619598e-05,
        4.9486756324768066e-05
      ],
      "type": "VEC2"
    },
    {
      "bufferView": 0,
      "componentType": 5125,
      "count": 373119,
      "type": "SCALAR"
    },
    {
      "bufferView": 2,
      "byteOffset": 1572768,
      "componentType": 5126,
      "count": 54010,
      "max": [
        8.548901557922363,
        12.988723754882813,
        4.551585674285889
      ],
      "min": [
        -15.583353042602539,
        -11.406977653503418,
        -4.435301780700684
      ],
      "type": "VEC3"
    },
    {
      "bufferView": 2,
      "byteOffset": 2220888,
      "componentType": 5126,
      "count": 54010,
      "max": [
        0.9978546500205994,
        0.9943946003913879,
        0.9947406649589539
      ],
      "min": [
        -0.9954472780227661,
        -0.9976632595062256,
        -0.999963104724884
      ],
      "type": "VEC3"
    },
    {
      "bufferView": 1,
      "byteOffset": 524256,
      "componentType": 5126,
      "count": 54010,
      "max": [
        0.9780250787734985,
        0.9999414682388306
      ],
      "min": [
        0.0030869890470057726,
        0.021084140986204147
      ],
      "type": "VEC2"
    },
    {
      "bufferView": 0,
      "byteOffset": 1492476,
      "componentType": 5125,
      "count": 279306,
      "type": "SCALAR"
    }
  ],
  "asset": {
    "extras": {
      "author": "Nik (https://sketchfab.com/nikska)",
      "license": "CC-BY-4.0 (http://creativecommons.org/licenses/by/4.0/)",
      "source": "https://sketchfab.com/3d-models/mars-perseverance-landing-site-raw-scan-d017d148d0554061b0c8064eb648af56",
      "title": "Mars Perseverance Landing Site - Raw Scan"
    },
    "generator": "Sketchfab-12.68.0",
    "version": "2.0"
  },
  "bufferViews": [
    {
      "buffer": 0,
      "byteLength": 2609700,
      "name": "floatBufferViews",
      "target": 34963
    },
    {
      "buffer": 0,
      "byteLength": 956336,
      "byteOffset": 2609700,
      "byteStride": 8,
      "name": "floatBufferViews",
      "target": 34962
    },
    {
      "buffer": 0,
      "byteLength": 2869008,
      "byteOffset": 3566036,
      "byteStride": 12,
      "name": "floatBufferViews",
      "target": 34962
    }
  ],
  "buffers": [
    {
      "byteLength": 6435044,
      "uri": "scene.bin"
    }
  ],
  "images": [
    {
      "uri": "textures/material0_baseColor.jpeg"
    },
    {
      "uri": "textures/material0_metallicRoughness.png"
    }
  ],
  "materials": [
    {
      "doubleSided": true,
      "name": "material0",
      "occlusionTexture": {
        "index": 1
      },
      "pbrMetallicRoughness": {
        "baseColorTexture": {
          "index": 0
        },
        "metallicFactor": 0.0,
        "metallicRoughnessTexture": {
          "index": 1
        },
        "roughnessFactor": 0.9577051494623774
      }
    }
  ],
  "meshes": [
    {
      "name": "Model_material0_0",
      "primitives": [
        {
          "attributes": {
            "NORMAL": 1,
            "POSITION": 0,
            "TEXCOORD_0": 2
          },
          "indices": 3,
          "material": 0,
          "mode": 4
        }
      ]
    },
    {
      "name": "Model_material0_0",
      "primitives": [
        {
          "attributes": {
            "NORMAL": 5,
            "POSITION": 4,
            "TEXCOORD_0": 6
          },
          "indices": 7,
          "material": 0,
          "mode": 4
        }
      ]
    }
  ],
  "nodes": [
    {
      "children": [
        1
      ],
      "matrix": [
        0.9847027659416199,
        -0.167555570602417,
        -0.047807361930608784,
        0.0,
        0.017309097573161125,
        0.3670811653137209,
        -0.9300278425216674,
        0.0,
        0.1733805239200592,
        0.914973497390747,
        0.3643660843372347,
        0.0,
        -0.052823081612586975,
        -0.1385923475027084,
        -0.12572480738162997,
        1.0
      ],
      "name": "Sketchfab_model"
    },
    {
      "children": [
        2
      ],
      "matrix": [
        1.0,
        0.0,
        0.0,
        0.0,
        0.0,
        -1.0,
        0.0,
        0.0,
        0.0,
        0.0,
        -1.0,
        0.0,
        0.0,
        0.0,
        0.0,
        1.0
      ],
      "name": "model.fbx"
    },
    {
      "children": [
        3
      ],
      "name": "RootNode"
    },
    {
      "children": [
        4,
        5
      ],
      "name": "Model"
    },
    {
      "mesh": 0,
      "name": "Model_material0_0"
    },
    {
      "mesh": 1,
      "name": "Model_material0_0"
    }
  ],
  "samplers": [
    {
      "magFilter": 9729,
      "minFilter": 9987,
      "wrapS": 10497,
      "wrapT": 10497
    }
  ],
  "scene": 0,
  "scenes": [
    {
      "name": "Sketchfab_Scene",
      "nodes": [
        0
      ]
    }
  ],
  "textures": [
    {
      "sampler": 0,
      "source": 0
    },
    {
      "sampler": 0,
      "source": 1
    }
  ]
}
